<svg width="250" height="250" viewBox="0 0 250 250" fill="none" xmlns="http://www.w3.org/2000/svg">
  <path d="M125 25C69.8 25 25 69.8 25 125C25 180.2 69.8 225 125 225C180.2 225 225 180.2 225 125C225 69.8 180.2 25 125 25Z" fill="white" fill-opacity="0.2"/>
  <path d="M125 50C83.5 50 50 83.5 50 125C50 166.5 83.5 200 125 200C166.5 200 200 166.5 200 125C200 83.5 166.5 50 125 50Z" stroke="white" stroke-width="2"/>
  <path d="M80 100C80 88.95 88.95 80 100 80H150C161.05 80 170 88.95 170 100V150C170 161.05 161.05 170 150 170H100C88.95 170 80 161.05 80 150V100Z" fill="white" fill-opacity="0.3"/>
  <text x="125" y="135" font-family="Arial" font-size="14" fill="white" text-anchor="middle">ZULIA</text>
</svg>
